<svg xmlns="http://www.w3.org/2000/svg" width="128" height="53.895" viewBox="0 0 128 53.895">
    <defs>
        <style>
            .cls-1{fill:#0cc282}.cls-3{fill:#11d993}
        </style>
    </defs>
    <g id="logo" transform="translate(-16.34 -22.51)">
        <g id="_Group_" transform="translate(91.368 22.51)">
            <path id="_Path_" d="M428.686 76.4c-13.03 0-23.6-12.063-23.6-26.946s10.563-26.948 23.6-26.948 23.6 12.063 23.6 26.944-10.566 26.95-23.6 26.95" class="cls-1" transform="translate(-399.312 -22.51)"/>
            <path id="_Path_2" fill="#1ea078" d="M383.069 49.454c0-13.764 9.038-25.108 20.707-26.737a20.806 20.806 0 0 0-2.89-.208c-13.031 0-23.6 12.063-23.6 26.946s10.567 26.945 23.6 26.945a20.946 20.946 0 0 0 2.89-.208c-11.668-1.628-20.707-12.975-20.707-26.737" transform="translate(-377.29 -22.51)"/>
            <path id="_Path_3" d="M383.076 156.88H377.3q.027.972.114 1.925h5.78q-.089-.951-.118-1.925" class="cls-3" transform="translate(-377.298 -128.972)"/>
            <path id="_Path_4" d="M383.453 133.71h-5.775c-.078.633-.137 1.277-.178 1.925h5.779c.042-.646.1-1.29.174-1.925" class="cls-3" transform="translate(-377.456 -110.614)"/>
            <path id="_Path_5" d="M385.609 180h-5.779q.188.976.434 1.925h5.779q-.247-.947-.432-1.925" class="cls-3" transform="translate(-379.302 -147.29)"/>
            <path id="_Path_6" d="M392.082 203.21H386.3c.245.656.516 1.3.807 1.925h5.783q-.435-.939-.805-1.925" class="cls-3" transform="translate(-384.427 -165.68)"/>
            <path id="_Path_7" d="M387.045 110.55h-5.776c-.187.623-.362 1.273-.509 1.925h5.786c.146-.65.31-1.294.5-1.925" class="cls-3" transform="translate(-380.038 -92.265)"/>
            <path id="_Path_8" d="M394.8 87.38h-5.778c-.317.623-.624 1.267-.891 1.925h5.783q.417-.987.888-1.925" class="cls-3" transform="translate(-385.877 -73.907)"/>
            <path id="_Path_9" d="M411.118 59.58h-5.785a23.165 23.165 0 0 0-1.563 1.925h5.785q.739-1.005 1.563-1.925" class="cls-3" transform="translate(-398.265 -51.881)"/>
            <path id="_Path_10" d="M434.616 36.41h-5.792A23.171 23.171 0 0 0 426 38.335h5.786a23.342 23.342 0 0 1 2.833-1.925" class="cls-3" transform="translate(-415.875 -33.523)"/>
            <path id="_Path_11" d="M406.321 231h-5.781q.67 1 1.418 1.925h5.785q-.75-.924-1.424-1.925" class="cls-3" transform="translate(-395.707 -187.698)"/>
            <path id="_Path_12" d="M420.54 254.18a23.926 23.926 0 0 0 2.431 1.925h5.793a23.936 23.936 0 0 1-2.449-1.925z" class="cls-3" transform="translate(-411.55 -206.063)"/>
            <path id="_Compound_Path_" fill="#42f2bc" d="M445.893 91.246h-.081a17.182 17.182 0 0 1-2.019-.118.962.962 0 1 1 .229-1.911 15.143 15.143 0 0 0 1.788.106 1 1 0 0 1 1 .962.927.927 0 0 1-.921.962m5.6-1.038a.961.961 0 0 1-.341-1.869 15.916 15.916 0 0 0 1.642-.729.962.962 0 0 1 .88 1.711 17.581 17.581 0 0 1-1.844.818.951.951 0 0 1-.339.062m-13.035-.735a.954.954 0 0 1-.435-.106 18.14 18.14 0 0 1-1.742-1.009.963.963 0 0 1 1.056-1.61 16.479 16.479 0 0 0 1.559.9.964.964 0 0 1-.436 1.821m19.368-3.425a.961.961 0 0 1-.686-1.639 17.211 17.211 0 0 0 1.211-1.35.963.963 0 0 1 1.5 1.215 19.046 19.046 0 0 1-1.337 1.489.96.96 0 0 1-.683.287m-25.254-1.354a.958.958 0 0 1-.743-.353 19.823 19.823 0 0 1-1.193-1.6.962.962 0 0 1 1.6-1.076c.343.507.709 1 1.087 1.454a.961.961 0 0 1-.746 1.572m29.484-4.945a.961.961 0 0 1-.884-1.346c.241-.555.461-1.128.657-1.7a.964.964 0 0 1 1.825.623c-.207.623-.453 1.246-.715 1.857a.97.97 0 0 1-.886.577m-33.154-1.7a.964.964 0 0 1-.913-.652c-.208-.623-.4-1.267-.563-1.907a.964.964 0 0 1 1.87-.465c.146.588.321 1.178.516 1.751a.963.963 0 0 1-.91 1.273m34.976-5.676h-.081a.963.963 0 0 1-.885-1.038c.046-.579.067-1.176.067-1.77a.99.99 0 0 1 .962-.995.937.937 0 0 1 .962.933v.062c0 .644-.025 1.288-.072 1.917a.962.962 0 0 1-.958.889m-36.208-1.832a.953.953 0 0 1-.962-.951v-.023c0-.65.026-1.308.079-1.959a.963.963 0 0 1 1.92.152c-.047.6-.072 1.209-.072 1.809a.973.973 0 0 1-.963.972m35.58-5.739a.965.965 0 0 1-.933-.727c-.146-.588-.322-1.178-.52-1.751a.965.965 0 0 1 1.823-.623c.208.623.4 1.267.565 1.907a.963.963 0 0 1-.7 1.167.89.89 0 0 1-.233.029m-34.362-1.744a.966.966 0 0 1-.91-1.273c.208-.623.455-1.246.721-1.857a.963.963 0 0 1 1.765.773c-.243.552-.465 1.126-.661 1.7a.962.962 0 0 1-.912.654m31.275-5.192a.962.962 0 0 1-.8-.415c-.34-.5-.706-.991-1.089-1.454a.962.962 0 0 1 1.487-1.219c.415.511.831 1.051 1.195 1.6a.965.965 0 0 1-.8 1.5m-27.617-1.454a.962.962 0 0 1-.746-1.57 18.731 18.731 0 0 1 1.339-1.485.962.962 0 0 1 1.368 1.354 18.11 18.11 0 0 0-1.215 1.348.958.958 0 0 1-.746.353m22.234-3.9a.968.968 0 0 1-.526-.156 15.8 15.8 0 0 0-1.561-.9.963.963 0 1 1 .867-1.72 18.02 18.02 0 0 1 1.746 1.005.961.961 0 0 1-.528 1.767m-16.357-.914a.961.961 0 0 1-.438-1.821 17.737 17.737 0 0 1 1.846-.814.963.963 0 1 1 .675 1.8 15.729 15.729 0 0 0-1.644.725.964.964 0 0 1-.437.106m9.252-1.684a.869.869 0 0 1-.109 0 15.262 15.262 0 0 0-1.752-.1.98.98 0 0 1-.984-.962.946.946 0 0 1 .942-.962h.042a17.1 17.1 0 0 1 1.971.114.962.962 0 0 1-.109 1.917" transform="translate(-416.437 -42.627)"/>
            <path id="Path_7837" fill="#fff" d="M486.238 103.509h-6.5v-3.169h16.586v3.169h-6.491v20.977h-3.6z" transform="translate(-458.444 -84.175)"/>
        </g>
        <path id="Path_7838" d="M20.705 134.5a6.149 6.149 0 0 1-2.286-.447 5.948 5.948 0 0 1-2.079-1.437l1.617-2.285a5.726 5.726 0 0 0 .848.656 4.644 4.644 0 0 0 .79.4 3.616 3.616 0 0 0 .711.2 3.993 3.993 0 0 0 .624.054h.3a1.86 1.86 0 0 0 .339-.031q.17-.023.33-.058a1.918 1.918 0 0 0 .3-.089 3.68 3.68 0 0 0 .723-.4q-.339-.831-.738-1.709l-.79-1.784-.8-1.78q-.395-.883-.732-1.7l2.612-1.09.794 1.927q.385.947.921 2.245t1.226 2.945q.16.393.3.687a1.809 1.809 0 0 0 .328.49 1.114 1.114 0 0 0 .439.291 1.93 1.93 0 0 0 .657.093 1.412 1.412 0 0 1 .545.108 1.378 1.378 0 0 1 .439.3 1.5 1.5 0 0 1 .308.451 1.376 1.376 0 0 1 0 1.107 1.5 1.5 0 0 1-.308.451 1.379 1.379 0 0 1-.451.3 1.412 1.412 0 0 1-.545.108 5.723 5.723 0 0 1-.96-.071 3.741 3.741 0 0 1-.742-.208 2.7 2.7 0 0 1-.58-.312 3.863 3.863 0 0 1-.478-.415q-.241.16-.509.307a6.013 6.013 0 0 1-.624.291 5.523 5.523 0 0 1-1.139.312 9.281 9.281 0 0 1-1.39.093z" class="cls-1" transform="translate(0 -79.619)"/>
        <path id="Path_7839" d="M61.45 129.255a1.43 1.43 0 0 1 .108-.552 1.322 1.322 0 0 1 .3-.447 1.474 1.474 0 0 1 .451-.3 1.385 1.385 0 0 1 .553-.112h.158a3.534 3.534 0 0 0 1.871-.4 1.329 1.329 0 0 0 .624-1.211v-.287a1.8 1.8 0 0 0-.027-.326 5.046 5.046 0 0 0-.116-.528q-.085-.32-.254-.9l2.546-.623a10.02 10.02 0 0 1 .345 1.211 6.906 6.906 0 0 1 .143 1.454 3.141 3.141 0 0 0 .05.54 2.017 2.017 0 0 0 .16.517 1.105 1.105 0 0 0 .3.382.747.747 0 0 0 .486.156 1.364 1.364 0 0 1 .545.112 1.473 1.473 0 0 1 .451.3 1.439 1.439 0 0 1 .308.447 1.338 1.338 0 0 1 .116.552 1.4 1.4 0 0 1-.416 1 1.444 1.444 0 0 1-.451.3 1.379 1.379 0 0 1-.54.108 3.913 3.913 0 0 1-1.455-.245 3.336 3.336 0 0 1-1.039-.656 4.368 4.368 0 0 1-1.532.683 8.9 8.9 0 0 1-2.118.226h-.152a1.435 1.435 0 0 1-.553-.108 1.363 1.363 0 0 1-.75-.75 1.43 1.43 0 0 1-.112-.543zm4.9-11.1l1.983 1.981-1.983 1.981-1.983-1.981z" class="cls-1" transform="translate(-35.733 -75.784)"/>
        <path id="Path_7840" d="M91.54 166.2a1.337 1.337 0 0 1 .116-.552 1.372 1.372 0 0 1 .318-.447 1.572 1.572 0 0 1 .463-.3 1.416 1.416 0 0 1 .563-.111h8.1a1.365 1.365 0 0 1 .545.112 1.476 1.476 0 0 1 .451.3 1.443 1.443 0 0 1 .308.447 1.376 1.376 0 0 1 0 1.107 1.5 1.5 0 0 1-.308.451 1.383 1.383 0 0 1-.451.3 1.413 1.413 0 0 1-.545.108h-8.113a1.475 1.475 0 0 1-1.012-.407 1.422 1.422 0 0 1-.318-.451 1.338 1.338 0 0 1-.117-.557z" class="cls-1" transform="translate(-59.569 -112.729)"/>
        <path id="Path_7841" d="M130.73 121.2a1.383 1.383 0 0 1 .112-.552 1.465 1.465 0 0 1 .3-.451 1.331 1.331 0 0 1 .447-.3 1.437 1.437 0 0 1 .553-.108h.5a3.279 3.279 0 0 0 .719-.071.917.917 0 0 0 .443-.2 1.209 1.209 0 0 0 .237-.528 3.984 3.984 0 0 0 .077-.945q0-.071-.027-.521t-.067-1.134q-.039-.683-.1-1.527t-.116-1.709l-.112-1.686q-.054-.82-.1-1.454l-.081-.995a1.4 1.4 0 0 0-.039-.334l2.831-.7q0 .143.054.665t.108 1.29q.062.768.125 1.713t.108 1.927l.144 4.418q0 .376-.019.831a4.923 4.923 0 0 1-.144.906 4.507 4.507 0 0 1-.347.922 3.37 3.37 0 0 1-.611.847 4.169 4.169 0 0 1-3.082 1.1h-.5a1.409 1.409 0 0 1-1.412-1.41z" class="cls-1" transform="translate(-90.612 -67.726)"/>
        <path id="Path_7842" d="M174.831 153.515q-.2 0-.553-.027a2.529 2.529 0 0 1-.769-.2 6.911 6.911 0 0 1-.738 2.1 9.452 9.452 0 0 1-1.335 1.869 11.688 11.688 0 0 1-1.812 1.6 16.181 16.181 0 0 1-2.17 1.313l-1.634-2.258q.634-.322 1.278-.7t1.229-.8a12.657 12.657 0 0 0 1.089-.883 7.294 7.294 0 0 0 .879-.951 4.532 4.532 0 0 0 .59-1 2.672 2.672 0 0 0 .208-1.038v-.189a.531.531 0 0 0 0-.081 8.308 8.308 0 0 0-.179-.991 9.936 9.936 0 0 0-.291-.964q-.174-.49-.416-1.038t-.518-1.184l2.579-1.093q.357 1.072.669 1.784a6.752 6.752 0 0 0 .611 1.124 1.987 1.987 0 0 0 .6.6 1.276 1.276 0 0 0 .642.174h.046a1.34 1.34 0 0 1 .553.116 1.5 1.5 0 0 1 .451.307 1.429 1.429 0 0 1 .3.451 1.354 1.354 0 0 1 .112.544 1.385 1.385 0 0 1-.867 1.294 1.458 1.458 0 0 1-.554.121z" class="cls-1" transform="translate(-118.408 -98.634)"/>
        <path id="Path_7843" d="M201.82 166.2a1.345 1.345 0 0 1 .116-.552 1.367 1.367 0 0 1 .318-.447 1.577 1.577 0 0 1 .463-.3 1.416 1.416 0 0 1 .559-.112h8.106a1.362 1.362 0 0 1 .545.112 1.476 1.476 0 0 1 .451.3 1.437 1.437 0 0 1 .308.447 1.379 1.379 0 0 1 0 1.107 1.5 1.5 0 0 1-.308.451 1.38 1.38 0 0 1-.451.3 1.412 1.412 0 0 1-.545.108h-8.115a1.475 1.475 0 0 1-1.012-.407 1.416 1.416 0 0 1-.318-.451 1.337 1.337 0 0 1-.117-.556z" class="cls-1" transform="translate(-146.925 -112.729)"/>
        <path id="Path_7844" d="M240.72 132.123a1.43 1.43 0 0 1 .108-.552 1.364 1.364 0 0 1 .75-.75 1.433 1.433 0 0 1 .553-.108h.68q.642 0 1.247-.054a3.933 3.933 0 0 0 1.039-.228 1.847 1.847 0 0 0 .738-.49 1.293 1.293 0 0 0 .3-.843v-.326a1.593 1.593 0 0 0-.05-.312q-.046-.183-.129-.482t-.237-.843l2.6-.739a6.937 6.937 0 0 1 .312 1.134 13.724 13.724 0 0 1 .208 1.543q.019.268.063.552a2.2 2.2 0 0 0 .147.528 1.083 1.083 0 0 0 .281.4.681.681 0 0 0 .464.156 1.431 1.431 0 0 1 .553.108 1.377 1.377 0 0 1 .451.3 1.441 1.441 0 0 1 .3.451 1.408 1.408 0 0 1-.308 1.558 1.44 1.44 0 0 1-.451.3 1.379 1.379 0 0 1-.54.108 3.707 3.707 0 0 1-1.47-.264 3.494 3.494 0 0 1-1.039-.683 3.976 3.976 0 0 1-.925.461 8.127 8.127 0 0 1-1.112.291 11.3 11.3 0 0 1-1.216.16q-.624.05-1.232.05h-.68a1.433 1.433 0 0 1-.553-.108 1.363 1.363 0 0 1-.75-.75 1.424 1.424 0 0 1-.102-.568zm8.869-8.6l-1.715 1.722-1.692-1.695-1.68 1.678-1.734-1.722 1.715-1.722 1.7 1.7 1.679-1.678z" class="cls-1" transform="translate(-177.739 -78.652)"/>
        <path id="Path_7845" d="M276.86 125.888a1.38 1.38 0 0 1 .112-.552 1.469 1.469 0 0 1 .3-.451 1.337 1.337 0 0 1 .45-.3 1.431 1.431 0 0 1 .553-.108h1.419q.4 0 .884-.035a8.971 8.971 0 0 0 .929-.116 4.488 4.488 0 0 0 .809-.218 1.214 1.214 0 0 0 .532-.353.751.751 0 0 0 .1-.415 2.846 2.846 0 0 0-.183-.91q-.183-.525-.433-1.072t-.513-1.038q-.264-.5-.416-.831l2.546-1.246a8.689 8.689 0 0 1 .536 1.138q.26.656.464 1.348a13.583 13.583 0 0 1 .331 1.356 6.422 6.422 0 0 1 .125 1.157 4.152 4.152 0 0 1-.323 1.662 3.817 3.817 0 0 1-1.027 1.387 4.157 4.157 0 0 1-1.563.808 4.705 4.705 0 0 1-.669.116q-.4.044-.813.066c-.275.015-.533.024-.777.027h-1.948a1.433 1.433 0 0 1-.553-.108 1.335 1.335 0 0 1-.447-.3 1.466 1.466 0 0 1-.3-.451 1.383 1.383 0 0 1-.125-.561zm8.94-10.238l-1.715 1.722-1.7-1.7-1.68 1.678-1.738-1.722 1.715-1.722 1.7 1.7 1.68-1.678z" class="cls-1" transform="translate(-206.367 -72.417)"/>
    </g>
</svg>
