<svg xmlns="http://www.w3.org/2000/svg" width="76" height="32" viewBox="0 0 76 32">
    <defs>
        <style>
            .cls-1{fill:#21b386}.cls-3{fill:#1a8c69}
        </style>
    </defs>
    <g id="logo" transform="translate(-16.34 -22.51)">
        <g id="_Group_" transform="translate(60.888 22.51)">
            <path id="_Path_" d="M419.1 54.51c-7.737 0-14.01-7.162-14.01-16s6.272-16 14.01-16 14.01 7.162 14.01 16-6.273 16-14.01 16" class="cls-1" transform="translate(-401.659 -22.51)"/>
            <path id="_Path_2" fill="#1ea078" d="M380.721 38.508c0-8.172 5.366-14.908 12.295-15.875a12.351 12.351 0 0 0-1.716-.123c-7.737 0-14.01 7.162-14.01 16s6.272 16 14.01 16a12.435 12.435 0 0 0 1.716-.123c-6.927-.967-12.295-7.7-12.295-15.875" transform="translate(-377.29 -22.51)"/>
            <path id="_Path_3" d="M380.73 156.88h-3.43q.017.577.068 1.143h3.432q-.053-.565-.07-1.143" class="cls-3" transform="translate(-377.299 -140.31)"/>
            <path id="_Path_4" d="M381.035 133.71h-3.429c-.047.376-.081.758-.106 1.143h3.431c.025-.384.058-.766.1-1.143" class="cls-3" transform="translate(-377.474 -119.997)"/>
            <path id="_Path_5" d="M383.261 180h-3.431q.111.58.258 1.143h3.431q-.147-.562-.257-1.143" class="cls-3" transform="translate(-379.517 -160.579)"/>
            <path id="_Path_6" d="M389.733 203.21H386.3c.146.39.306.77.479 1.143h3.434q-.258-.557-.478-1.143" class="cls-3" transform="translate(-385.188 -180.926)"/>
            <path id="_Path_7" d="M384.492 110.55h-3.43c-.111.37-.215.756-.3 1.143h3.438c.086-.386.184-.768.295-1.143" class="cls-3" transform="translate(-380.332 -99.693)"/>
            <path id="_Path_8" d="M392.089 87.38h-3.431c-.188.37-.37.752-.528 1.143h3.434q.247-.586.527-1.143" class="cls-3" transform="translate(-386.792 -79.38)"/>
            <path id="_Path_9" d="M408.133 59.58H404.7a13.661 13.661 0 0 0-.928 1.143h3.428q.439-.6.928-1.143" class="cls-3" transform="translate(-400.502 -55.009)"/>
            <path id="_Path_10" d="M431.116 36.41h-3.438A13.8 13.8 0 0 0 426 37.553h3.436a13.872 13.872 0 0 1 1.682-1.143" class="cls-3" transform="translate(-419.988 -34.696)"/>
            <path id="_Path_11" d="M403.972 231h-3.432q.4.594.842 1.143h3.435q-.445-.549-.845-1.143" class="cls-3" transform="translate(-397.671 -205.289)"/>
            <path id="_Path_12" d="M420.54 254.18a14.166 14.166 0 0 0 1.443 1.143h3.44a14.146 14.146 0 0 1-1.454-1.143z" class="cls-3" transform="translate(-415.202 -225.611)"/>
            <path id="_Compound_Path_" fill="#25c795" d="M438.1 73.637h-.048a10.2 10.2 0 0 1-1.2-.07.571.571 0 1 1 .136-1.135 8.99 8.99 0 0 0 1.061.063.592.592 0 0 1 .6.571.55.55 0 0 1-.547.571m3.326-.617a.571.571 0 0 1-.2-1.11 9.427 9.427 0 0 0 .975-.433.571.571 0 1 1 .522 1.016 10.437 10.437 0 0 1-1.095.486.562.562 0 0 1-.2.037m-7.74-.437a.564.564 0 0 1-.258-.063 10.726 10.726 0 0 1-1.034-.6.572.572 0 1 1 .627-.956 9.685 9.685 0 0 0 .926.535.572.572 0 0 1-.259 1.082m11.5-2.034a.571.571 0 0 1-.407-.973 10.215 10.215 0 0 0 .719-.8.572.572 0 0 1 .887.721 11.28 11.28 0 0 1-.794.884.57.57 0 0 1-.406.17m-14.994-.8a.569.569 0 0 1-.442-.21c-.247-.3-.485-.617-.708-.951a.571.571 0 0 1 .948-.639c.2.3.421.593.646.863a.571.571 0 0 1-.443.934M447.7 66.8a.579.579 0 0 1-.228-.047.572.572 0 0 1-.3-.752c.143-.329.274-.67.39-1.011a.573.573 0 0 1 1.084.37c-.123.37-.269.74-.425 1.1a.575.575 0 0 1-.526.343M428.012 65.8a.573.573 0 0 1-.542-.387c-.123-.37-.24-.752-.335-1.132a.573.573 0 0 1 1.112-.281c.086.349.19.7.306 1.04a.572.572 0 0 1-.541.756m20.768-3.37h-.044a.571.571 0 0 1-.526-.617c.027-.344.039-.7.039-1.051a.588.588 0 0 1 .571-.591.556.556 0 0 1 .571.554v.037c0 .382-.015.765-.043 1.138a.571.571 0 0 1-.569.528m-21.5-1.088a.566.566 0 0 1-.571-.565v-.014c0-.386.016-.777.047-1.163a.572.572 0 0 1 1.14.09c-.028.356-.043.718-.043 1.074a.577.577 0 0 1-.571.577m21.123-3.407a.573.573 0 0 1-.554-.432c-.086-.349-.191-.7-.309-1.04a.573.573 0 0 1 1.082-.37c.123.37.241.752.336 1.132a.571.571 0 0 1-.416.693.526.526 0 0 1-.138.017M428 56.9a.573.573 0 0 1-.541-.756c.123-.37.27-.74.428-1.1a.572.572 0 0 1 1.048.459c-.144.328-.276.668-.392 1.01a.571.571 0 0 1-.542.388m18.57-3.083a.57.57 0 0 1-.474-.247c-.2-.3-.42-.588-.647-.863a.571.571 0 0 1 .882-.724c.247.3.494.624.71.95a.573.573 0 0 1-.474.893m-16.4-.863a.571.571 0 0 1-.443-.932 11.239 11.239 0 0 1 .795-.882.571.571 0 1 1 .812.8 10.708 10.708 0 0 0-.721.8.569.569 0 0 1-.443.21m13.2-2.315a.574.574 0 0 1-.312-.092 9.415 9.415 0 0 0-.927-.533.572.572 0 1 1 .523-1.02 10.728 10.728 0 0 1 1.037.6.571.571 0 0 1-.314 1.049m-9.712-.543a.571.571 0 0 1-.26-1.082 10.555 10.555 0 0 1 1.1-.483.572.572 0 1 1 .4 1.07 9.35 9.35 0 0 0-.976.43.573.573 0 0 1-.259.063m5.493-1a.517.517 0 0 1-.065 0 9.059 9.059 0 0 0-1.04-.06.582.582 0 0 1-.584-.571.561.561 0 0 1 .559-.571h.025a10.156 10.156 0 0 1 1.171.068.571.571 0 0 1-.065 1.138" transform="translate(-420.611 -44.769)"/>
            <path id="Path_20335" fill="#fff" d="M483.6 102.222h-3.86v-1.882h9.848v1.882h-3.854v12.455H483.6z" transform="translate(-467.096 -90.742)"/>
        </g>
        <path id="Path_20336" d="M18.932 129.828a3.651 3.651 0 0 1-1.358-.265 3.531 3.531 0 0 1-1.234-.853l.96-1.357a3.4 3.4 0 0 0 .5.39 2.758 2.758 0 0 0 .469.24 2.145 2.145 0 0 0 .422.117 2.372 2.372 0 0 0 .37.032h.18a1.1 1.1 0 0 0 .2-.019q.1-.014.2-.035a1.138 1.138 0 0 0 .175-.053 2.186 2.186 0 0 0 .429-.239q-.2-.493-.438-1.015l-.469-1.059-.473-1.057q-.234-.524-.434-1.007l1.551-.648.471 1.144q.228.562.547 1.333t.728 1.749l.175.408a1.074 1.074 0 0 0 .2.291.662.662 0 0 0 .26.173 1.144 1.144 0 0 0 .39.056.838.838 0 0 1 .323.064.819.819 0 0 1 .26.176.891.891 0 0 1 .183.268.817.817 0 0 1 0 .657.889.889 0 0 1-.183.268.818.818 0 0 1-.268.178.839.839 0 0 1-.323.064 3.4 3.4 0 0 1-.57-.042 2.224 2.224 0 0 1-.441-.123 1.6 1.6 0 0 1-.344-.185 2.291 2.291 0 0 1-.284-.247q-.143.095-.3.183a3.575 3.575 0 0 1-.37.173 3.28 3.28 0 0 1-.676.185 5.514 5.514 0 0 1-.828.055z" class="cls-1" transform="translate(0 -88.098)"/>
        <path id="Path_20337" d="M61.45 124.748a.85.85 0 0 1 .064-.328.785.785 0 0 1 .178-.265.875.875 0 0 1 .268-.178.822.822 0 0 1 .328-.067h.094a2.1 2.1 0 0 0 1.111-.236.789.789 0 0 0 .37-.719v-.17a1.068 1.068 0 0 0-.016-.194 2.993 2.993 0 0 0-.069-.313q-.051-.19-.151-.533l1.512-.37a5.95 5.95 0 0 1 .2.719 4.1 4.1 0 0 1 .085.863 1.856 1.856 0 0 0 .03.321 1.2 1.2 0 0 0 .1.307.656.656 0 0 0 .18.227.443.443 0 0 0 .289.092.81.81 0 0 1 .323.067.875.875 0 0 1 .268.178.854.854 0 0 1 .183.265.8.8 0 0 1 .069.328.828.828 0 0 1-.247.6.857.857 0 0 1-.268.178.819.819 0 0 1-.321.064 2.323 2.323 0 0 1-.864-.146 1.981 1.981 0 0 1-.617-.39 2.593 2.593 0 0 1-.91.406 5.284 5.284 0 0 1-1.258.134h-.09a.852.852 0 0 1-.328-.064.809.809 0 0 1-.446-.445.85.85 0 0 1-.067-.331zm2.907-6.588l1.177 1.176-1.177 1.176-1.177-1.176z" class="cls-1" transform="translate(-39.543 -83.855)"/>
        <path id="Path_20338" d="M91.54 165.627a.8.8 0 0 1 .069-.328.814.814 0 0 1 .189-.265.935.935 0 0 1 .275-.178.841.841 0 0 1 .332-.067h4.813a.811.811 0 0 1 .323.067.875.875 0 0 1 .268.178.855.855 0 0 1 .183.265.817.817 0 0 1 0 .657.888.888 0 0 1-.183.268.818.818 0 0 1-.268.178.839.839 0 0 1-.323.064H92.4a.876.876 0 0 1-.6-.242.844.844 0 0 1-.189-.268.8.8 0 0 1-.071-.329z" class="cls-1" transform="translate(-65.919 -124.734)"/>
        <path id="Path_20339" d="M130.73 115.832a.822.822 0 0 1 .067-.328.874.874 0 0 1 .178-.268.789.789 0 0 1 .265-.178.852.852 0 0 1 .328-.064h.3a1.946 1.946 0 0 0 .427-.042.544.544 0 0 0 .263-.117.717.717 0 0 0 .141-.313 2.364 2.364 0 0 0 .046-.561q0-.042-.016-.31t-.039-.673q-.023-.406-.058-.906t-.069-1.015l-.067-1q-.032-.486-.06-.863l-.048-.591a.835.835 0 0 0-.023-.2l1.681-.413q0 .085.032.395t.064.766q.037.456.074 1.017t.064 1.144l.085 2.623q0 .223-.011.493a2.908 2.908 0 0 1-.085.538 2.68 2.68 0 0 1-.206.548 2 2 0 0 1-.363.5 2.476 2.476 0 0 1-1.83.652h-.3a.836.836 0 0 1-.838-.837z" class="cls-1" transform="translate(-100.272 -74.939)"/>
        <path id="Path_20340" d="M171.17 150.868q-.117 0-.328-.016a1.5 1.5 0 0 1-.457-.117 4.1 4.1 0 0 1-.438 1.248 5.614 5.614 0 0 1-.792 1.11 6.937 6.937 0 0 1-1.076.951 9.608 9.608 0 0 1-1.288.779l-.97-1.34q.376-.191.759-.416t.729-.477a7.526 7.526 0 0 0 .647-.524 4.315 4.315 0 0 0 .522-.565 2.7 2.7 0 0 0 .351-.6 1.589 1.589 0 0 0 .123-.617v-.112a.32.32 0 0 0 0-.048 4.964 4.964 0 0 0-.106-.588 5.92 5.92 0 0 0-.173-.572q-.1-.291-.247-.617t-.307-.7l1.53-.649q.212.636.4 1.059a4.02 4.02 0 0 0 .363.667 1.18 1.18 0 0 0 .358.358.757.757 0 0 0 .381.1h.027a.8.8 0 0 1 .328.069.892.892 0 0 1 .268.183.852.852 0 0 1 .18.268.807.807 0 0 1 .067.323.828.828 0 0 1-.247.593.837.837 0 0 1-.268.175.865.865 0 0 1-.336.075z" class="cls-1" transform="translate(-131.031 -109.138)"/>
        <path id="Path_20341" d="M201.82 165.627a.793.793 0 0 1 .069-.328.814.814 0 0 1 .189-.265.936.936 0 0 1 .275-.178.841.841 0 0 1 .332-.067h4.815a.809.809 0 0 1 .323.067.874.874 0 0 1 .268.178.854.854 0 0 1 .183.265.818.818 0 0 1 0 .657.887.887 0 0 1-.183.268.818.818 0 0 1-.268.178.838.838 0 0 1-.323.064h-4.82a.864.864 0 0 1-.326-.064.873.873 0 0 1-.275-.178.845.845 0 0 1-.189-.268.793.793 0 0 1-.07-.329z" class="cls-1" transform="translate(-162.588 -124.734)"/>
        <path id="Path_20342" d="M240.719 127.921a.852.852 0 0 1 .064-.328.809.809 0 0 1 .446-.445.851.851 0 0 1 .328-.064h.4q.381 0 .741-.032a2.333 2.333 0 0 0 .617-.136 1.1 1.1 0 0 0 .438-.291.768.768 0 0 0 .178-.5v-.194a.948.948 0 0 0-.03-.185q-.027-.109-.077-.286t-.141-.5l1.545-.439a4.1 4.1 0 0 1 .185.673 8.094 8.094 0 0 1 .123.916q.011.159.037.328a1.3 1.3 0 0 0 .088.313.641.641 0 0 0 .167.236.4.4 0 0 0 .275.092.851.851 0 0 1 .328.064.818.818 0 0 1 .268.178.852.852 0 0 1 .18.268.836.836 0 0 1-.183.925.855.855 0 0 1-.268.178.819.819 0 0 1-.321.064 2.2 2.2 0 0 1-.873-.157 2.076 2.076 0 0 1-.617-.406 2.36 2.36 0 0 1-.549.274 4.83 4.83 0 0 1-.66.173 6.71 6.71 0 0 1-.722.095q-.37.03-.732.03h-.4a.851.851 0 0 1-.328-.064.809.809 0 0 1-.446-.445.852.852 0 0 1-.061-.335zm5.266-5.109l-1.018 1.022-1-1.006-1 1-1.029-1.022 1.018-1.022 1.008 1.008 1-1z" class="cls-1" transform="translate(-196.687 -87.028)"/>
        <path id="Path_20343" d="M276.86 121.022a.821.821 0 0 1 .067-.328.875.875 0 0 1 .178-.268.789.789 0 0 1 .267-.179.851.851 0 0 1 .328-.064h.843q.238 0 .525-.021a5.323 5.323 0 0 0 .552-.069 2.657 2.657 0 0 0 .48-.129.72.72 0 0 0 .316-.21.444.444 0 0 0 .058-.247 1.689 1.689 0 0 0-.109-.54q-.109-.312-.257-.636t-.3-.617q-.157-.3-.247-.493l1.512-.74a5.2 5.2 0 0 1 .318.676q.154.39.275.8a8.107 8.107 0 0 1 .2.805 3.786 3.786 0 0 1 .074.687 2.464 2.464 0 0 1-.191.987 2.27 2.27 0 0 1-.61.824 2.47 2.47 0 0 1-.928.48 2.8 2.8 0 0 1-.4.069q-.238.026-.483.039t-.462.016H277.7a.851.851 0 0 1-.328-.064.789.789 0 0 1-.265-.178.872.872 0 0 1-.178-.268.82.82 0 0 1-.069-.332zm5.307-6.078l-1.018 1.022-1.008-1.008-1 1-1.032-1.022 1.018-1.022 1.008 1.008 1-1z" class="cls-1" transform="translate(-228.367 -80.129)"/>
    </g>
</svg>
